<?xml version="1.0" encoding="utf-8"?>
<!-- Generator: Adobe Illustrator 16.0.0, SVG Export Plug-In . SVG Version: 6.00 Build 0)  -->
<!DOCTYPE svg PUBLIC "-//W3C//DTD SVG 1.1//EN" "http://www.w3.org/Graphics/SVG/1.1/DTD/svg11.dtd">
<svg version="1.1" id="Layer_1" xmlns="http://www.w3.org/2000/svg" xmlns:xlink="http://www.w3.org/1999/xlink" x="0px" y="0px"
	 width="410px" height="145px" viewBox="0 0 410 145" enable-background="new 0 0 410 145" xml:space="preserve">
<g>
	<path fill="#FFFFFF" d="M125.849,66.743h3.492V47.146h-3.492v-5.014h26.047v9.379h-5.626v-4.365h-9.21v6.803h7.419v5.022h-7.419
		v7.771h9.21v-4.408h5.626v9.425h-26.047V66.743z"/>
	<path fill="#FFFFFF" d="M153.925,64.649h4.805c0.042,0.957,0.346,1.573,1.303,2.312c0.831,0.61,1.924,0.873,3.277,0.873
		c2.009,0,3.36-0.785,3.36-2.006c0-3.012-7.809-1.006-12-5.195c-0.873-0.87-1.526-2.222-1.526-3.75c0-3.537,3.183-6.071,7.633-6.071
		c1.879,0,3.623,0.354,5.195,1.009v-0.701h4.713v5.979h-4.713c-0.392-1.441-1.877-2.142-4.495-2.142
		c-1.744,0-2.836,0.659-2.836,1.575c0,2.878,13.44,0.132,13.44,8.685c0,4.015-2.794,6.937-8.114,6.937
		c-2.971,0-4.277-0.525-5.237-1.436v1.043h-4.805V64.649z"/>
	<path fill="#FFFFFF" d="M172.147,51.119h2.623v-3.231l6.675-4.712v7.943h4.228v4.759h-4.228v8.943c0,1.79,0.306,2.14,1.705,2.14
		c0.695,0,1.09-0.084,1.999-0.395v4.454c-1.65,0.697-3.311,1.047-4.927,1.047c-2.617,0-5.452-1.268-5.452-4.934V55.878h-2.623
		V51.119z"/>
	<path fill="#FFFFFF" d="M185.617,51.119h9.948V67h2.75v4.759h-12.44V67h3.011V55.878h-3.27V51.119z"/>
	<path fill="#FFFFFF" d="M198.948,67h3.183V46.889h-3.183v-4.756h9.856V67h2.971v4.759h-12.827V67z"/>
	<path fill="#FFFFFF" d="M222.969,72.24c-6.11,0-10.826-3.965-10.826-10.824c0-7.245,5.239-10.778,10.826-10.778
		c6.021,0,10.863,3.841,10.863,10.778C233.832,67.917,229.422,72.24,222.969,72.24z M222.969,55.745c-2.619,0-4.06,2.095-4.06,5.803
		c0,3.489,1.529,5.585,4.06,5.585c2.621,0,4.104-2.096,4.104-5.716C227.073,57.84,225.59,55.745,222.969,55.745z"/>
	<path fill="#FFFFFF" d="M233.512,66.743h4.417V47.146h-4.417v-5.014h15.219c5.269,0,8.917,1,11.872,4.009
		c2.912,2.972,4.158,6.809,4.158,10.867c0,7.687-4.671,14.751-13.927,14.751h-17.322V66.743z M248.389,66.743
		c5.784,0,8.482-3.794,8.482-9.69c0-6.37-3.083-9.906-8.744-9.906h-2.61v19.596H248.389z"/>
	<path fill="#FFFFFF" d="M266.421,66.743h1.815V47.146h-4.14v-5.014h25.976v9.116h-5.558v-4.102h-8.714v6.853h6.277v5.016h-6.277
		v7.728h1.857v5.017h-11.237V66.743z"/>
	<path fill="#FFFFFF" d="M195.964,45.653c0,2.003-1.614,3.622-3.62,3.622c-2.007,0-3.58-1.619-3.58-3.622
		c0-2.01,1.573-3.577,3.58-3.577C194.351,42.076,195.964,43.643,195.964,45.653z"/>
	<g>
		<path fill="#FFFFFF" d="M122.529,71.678v-0.652c0.418,0.008,0.7-0.264,0.7-0.59c0-0.236-0.177-0.429-0.413-0.429
			c-0.704,0-0.608,1.714-1.814,1.714c-0.753,0-1.053-0.567-1.053-1.043c0-0.301,0.12-0.549,0.358-0.706V69.96h-0.32v-0.649h1.169
			v0.649c-0.349,0.051-0.567,0.261-0.567,0.557c0,0.22,0.133,0.383,0.314,0.383c0.625,0,0.485-1.781,1.846-1.781
			c0.919,0,1.143,0.712,1.143,1.12c0,0.345-0.123,0.603-0.372,0.774v0.012h0.326v0.652H122.529z"/>
		<path fill="#FFFFFF" d="M123.25,65.86c0.43,0.28,0.657,0.74,0.657,1.321c0,0.933-0.523,1.514-1.355,1.514
			c-0.843,0-1.454-0.604-1.454-1.444c0-0.806,0.615-1.453,1.582-1.391v1.973c0.308-0.005,0.675-0.172,0.675-0.663
			c0-0.224-0.075-0.373-0.317-0.622L123.25,65.86z M122.2,66.713c-0.338,0.044-0.541,0.255-0.541,0.567
			c0,0.313,0.175,0.496,0.541,0.552V66.713z"/>
		<path fill="#FFFFFF" d="M121.157,65.551v-1.369h0.224c-0.184-0.312-0.264-0.574-0.264-0.855c0-0.355,0.133-0.654,0.372-0.823
			c-0.259-0.386-0.372-0.688-0.372-1.057c0-0.488,0.206-0.922,0.885-0.922h1.222v-0.531h0.623v1.4h-1.559
			c-0.299,0-0.437,0.108-0.437,0.353c0,0.187,0.065,0.383,0.181,0.607h1.191v-0.486h0.623v1.356h-1.559
			c-0.314,0-0.437,0.102-0.437,0.339c0,0.198,0.053,0.362,0.181,0.621h1.191v-0.486h0.623v1.855h-0.623v-0.503h-1.448v0.503H121.157
			z"/>
		<path fill="#FFFFFF" d="M123.846,56.796v1.3h-0.209c0.173,0.25,0.248,0.468,0.248,0.728c0,0.567-0.358,0.985-0.841,0.985
			c-0.52,0-0.904-0.462-0.904-1.105c0-0.245,0.047-0.389,0.125-0.607h-0.151c-0.278,0-0.471,0.207-0.471,0.511
			c0,0.2,0.064,0.337,0.209,0.492l-0.119,0.689c-0.436-0.214-0.634-0.625-0.634-1.303c0-0.875,0.309-1.256,1.028-1.256h1.098v-0.434
			H123.846z M122.657,58.591c0,0.226,0.145,0.393,0.335,0.393c0.203,0,0.363-0.155,0.363-0.35c0-0.175-0.075-0.308-0.283-0.538
			h-0.221C122.717,58.311,122.657,58.459,122.657,58.591z"/>
		<path fill="#FFFFFF" d="M121.157,56.518v-1.285h0.25c-0.2-0.276-0.29-0.497-0.29-0.77c0-0.358,0.19-0.817,0.916-0.817h1.191
			v-0.393h0.623v1.264h-1.708c-0.215,0-0.297,0.084-0.297,0.248c0,0.148,0.062,0.313,0.169,0.467h1.212v-0.351h0.623v1.636h-0.623
			v-0.413h-1.448v0.413H121.157z"/>
		<path fill="#FFFFFF" d="M123.846,49.936v1.3h-0.209c0.173,0.252,0.248,0.468,0.248,0.729c0,0.562-0.358,0.983-0.841,0.983
			c-0.52,0-0.904-0.459-0.904-1.104c0-0.242,0.047-0.387,0.125-0.607h-0.151c-0.278,0-0.471,0.209-0.471,0.514
			c0,0.198,0.064,0.335,0.209,0.486l-0.119,0.695c-0.436-0.216-0.634-0.626-0.634-1.297c0-0.883,0.309-1.264,1.028-1.264h1.098
			v-0.434H123.846z M122.657,51.732c0,0.227,0.145,0.392,0.335,0.392c0.203,0,0.363-0.153,0.363-0.352
			c0-0.171-0.075-0.309-0.283-0.537h-0.221C122.717,51.447,122.657,51.601,122.657,51.732z"/>
		<path fill="#FFFFFF" d="M123.846,47.819v1.894h-0.623v-0.504h-1.448v0.457h-0.619v-1.232h0.685v-0.015
			c-0.467-0.151-0.725-0.491-0.725-0.93v-0.132h0.816v0.104c0,0.695,0.462,0.882,1.011,0.882h0.279v-0.523H123.846z"/>
		<path fill="#FFFFFF" d="M121.157,46.936v-1.264h2.067v-0.391h0.623v1.655h-0.623v-0.396h-1.448v0.396H121.157z M120.391,45.629
			c0.262,0,0.472,0.209,0.472,0.473c0,0.26-0.209,0.464-0.472,0.464c-0.264,0-0.464-0.205-0.464-0.464
			C119.927,45.838,120.127,45.629,120.391,45.629z"/>
		<path fill="#FFFFFF" d="M123.907,43.543c0,0.795-0.515,1.407-1.407,1.407c-0.948,0-1.403-0.678-1.403-1.407
			c0-0.783,0.5-1.411,1.403-1.411C123.346,42.132,123.907,42.701,123.907,43.543z M121.762,43.543c0,0.343,0.271,0.528,0.752,0.528
			c0.46,0,0.731-0.201,0.731-0.528c0-0.34-0.271-0.534-0.744-0.534C122.032,43.009,121.762,43.203,121.762,43.543z"/>
	</g>
</g>
<g>
	<g>
		<path fill="#FFFFFF" d="M150.423,78.723l7.272,17.551l7.272-17.551h0.931l-7.449,18.201h-1.463l-7.583-18.201H150.423z"/>
		<path fill="#FFFFFF" d="M170.29,78.723v18.201h-0.976V78.723H170.29z"/>
		<path fill="#FFFFFF" d="M180,78.723c4.612,0,6.385,1.586,6.385,4.082v1.639c0,2.236-1.507,3.458-4.922,3.822
			c3.459,0.312,4.922,1.638,4.922,3.641v2.859c0,0.702,0.133,1.586,0.843,2.158h-1.064c-0.621-0.572-0.753-1.378-0.753-2.158v-2.859
			c0-2.679-2.75-3.381-6.785-3.381h-3.813v8.398h-0.976V78.723H180z M178.626,87.979c4.301,0,6.785-0.649,6.785-3.458v-1.664
			c0-2.21-1.463-3.588-5.454-3.588h-5.144v8.71H178.626z"/>
		<path fill="#FFFFFF" d="M193.26,92.634l-1.818,4.29h-0.887l7.494-18.227h1.375l7.671,18.227h-0.976l-1.818-4.29H193.26z
			 M193.438,92.113h10.687l-5.41-12.74L193.438,92.113z"/>
		<path fill="#FFFFFF" d="M210.511,96.924V78.723h0.976v17.655h10.421v0.546H210.511z"/>
		<path fill="#FFFFFF" d="M235.388,87.434v0.52h-9.135v8.425h10.864v0.546h-11.84V78.723h11.84v0.547h-10.864v8.164H235.388z"/>
		<path fill="#FFFFFF" d="M253.436,83.117v0.338h-0.976v-0.363c0-2.158-1.374-3.979-5.409-3.979c-4.08,0-5.454,1.794-5.454,3.952
			c0,4.654,11.883,4.524,11.883,9.464c0,2.522-1.773,4.524-6.518,4.524c-4.7,0-6.475-2.002-6.475-4.524v-0.884h0.932v0.91
			c0,2.21,1.463,3.952,5.543,3.952c4.079,0,5.543-1.742,5.543-3.952c0-4.603-11.884-4.446-11.884-9.464
			c0-2.652,1.906-4.473,6.385-4.498C251.706,78.594,253.436,80.621,253.436,83.117z"/>
	</g>
</g>
</svg>
